PathFileType	4	(X/Y/Z)	C:\Users\Basilio\Documents\Thesis Gigler\squatting_fais\c3dfiles\076\SLS_back_pre1\markers_experimental.trc
DataRate	CameraRate	NumFrames	NumMarkers	Units	OrigDataRate	OrigDataStartFrame	OrigNumFrames
200.000000	200.000000	4	61	mm	200.000000	577	2311
Frame#	Time	FHD			LBHD			RBHD			C7			T10			CLAV			LSHO			LUUPA			LMUPA			LDUPA			LLEP			LMEP			LRAD			LUL			LRFIN			RSHO			RUPA1			RMUPA			RDUPA			RLEP			RMEP			RRAD			RUL			RUFIN			LASI			RASI			USACR			LSACR			RSACR			LTHI1			LTHI2			LTHI3			LTHI4			LLFC			LMFC			LTIB1			LTIB2			LTIB3			LTIB4			LLMAL			LMMAL			LHEE			LMT1			LMT2			LMT5			RTHI			RTHI2			RTHI3			RTHI4			RLFC			RMFC			RTIB1			RTIB2			RTIB3			RTIB4			RLMAL			RMMAL			RHEE			RMT1			RMT2			RMT5			
		X1	Y1	Z1	X2	Y2	Z2	X3	Y3	Z3	X4	Y4	Z4	X5	Y5	Z5	X6	Y6	Z6	X7	Y7	Z7	X8	Y8	Z8	X9	Y9	Z9	X10	Y10	Z10	X11	Y11	Z11	X12	Y12	Z12	X13	Y13	Z13	X14	Y14	Z14	X15	Y15	Z15	X16	Y16	Z16	X17	Y17	Z17	X18	Y18	Z18	X19	Y19	Z19	X20	Y20	Z20	X21	Y21	Z21	X22	Y22	Z22	X23	Y23	Z23	X24	Y24	Z24	X25	Y25	Z25	X26	Y26	Z26	X27	Y27	Z27	X28	Y28	Z28	X29	Y29	Z29	X30	Y30	Z30	X31	Y31	Z31	X32	Y32	Z32	X33	Y33	Z33	X34	Y34	Z34	X35	Y35	Z35	X36	Y36	Z36	X37	Y37	Z37	X38	Y38	Z38	X39	Y39	Z39	X40	Y40	Z40	X41	Y41	Z41	X42	Y42	Z42	X43	Y43	Z43	X44	Y44	Z44	X45	Y45	Z45	X46	Y46	Z46	X47	Y47	Z47	X48	Y48	Z48	X49	Y49	Z49	X50	Y50	Z50	X51	Y51	Z51	X52	Y52	Z52	X53	Y53	Z53	X54	Y54	Z54	X55	Y55	Z55	X56	Y56	Z56	X57	Y57	Z57	X58	Y58	Z58	X59	Y59	Z59	X60	Y60	Z60	X61	Y61	Z61	

578	2.885	-212.6017150878907	1636.48291015625	-962.9146728515627	-339.8987121582032	1561.233032226563	-1071.630737304688	-343.7897338867188	1572.30224609375	-920.774353027344	-395.2309875488282	1448.37451171875	-982.4978637695315	-423.0288696289064	1126.7802734375	-983.1609497070315	-263.9762878417969	1366.8515625	-988.7825317382815	-347.7859802246094	1397.573486328125	-1155.56494140625	-372.1494750976563	1250.05078125	-1286.941040039063	-353.5541992187501	1205.429321289063	-1273.035034179688	-382.6543273925782	1193.23583984375	-1325.6474609375	-396.5306701660157	1143.911987304688	-1352.862060546875	-473.3352966308595	1129.82958984375	-1309.535766601563	-364.0725708007813	995.4775390625002	-1166.032104492188	-323.0824890136719	960.8142089843752	-1203.059936523438	-315.0570373535157	1018.505004882813	-1152.69873046875	-332.5311889648438	1392.180297851563	-821.449890136719	-382.4738769531251	1262.243286132813	-681.4136962890626	-348.8096313476563	1225.031982421875	-677.8341064453126	-390.7764282226564	1206.035766601563	-638.4655151367189	-381.8480529785157	1137.139038085938	-613.3410644531251	-452.9786682128907	1116.915405273438	-666.0089721679689	-338.2922668457032	997.2149658203127	-804.1903076171877	-288.2064819335938	1023.437438964844	-815.5766601562502	-290.1824035644532	969.5786132812502	-766.6964111328126	-261.1608276367188	947.981384277344	-1096.714233398438	-250.6081237792969	940.1333007812502	-883.1475219726565	-423.7966308593751	1019.550964355469	-979.051696777344	-432.3475952148439	990.7683715820315	-1007.110595703125	-427.4012145996095	988.7359619140627	-950.8015136718752	-346.7099609375001	793.0642089843752	-1152.493530273438	-325.5487060546876	712.7031860351564	-1142.403930664063	-276.4075012207032	712.6975097656251	-1133.266357421875	-358.3673400878907	663.6506958007814	-1126.582641601563	-371.3980712890626	503.8733215332032	-1092.47998046875	-335.1465454101563	503.084930419922	-978.5412597656252	-333.2095642089844	364.3239440917969	-1018.310974121094	-356.0516357421876	308.3022155761719	-1082.035766601563	-326.3061218261719	313.4814147949219	-1046.128540039063	-335.1390380859376	237.2826538085938	-1010.813537597656	-387.0337829589845	107.758285522461	-1054.762329101563	-357.4461059570313	123.255615234375	-977.393737792969	-443.4424438476564	97.17227172851565	-1007.195861816406	-241.3869934082032	53.64458084106447	-993.444030761719	-236.1864624023438	50.22460174560548	-1032.342651367188	-259.9288635253907	43.59214019775391	-1082.087158203125	-335.8799743652344	696.4888305664064	-794.7794189453127	-293.1931152343751	646.6977539062501	-778.0410156250002	-258.9312133789063	652.5067138671876	-779.611267089844	-306.9192810058594	565.4814453125001	-790.8992309570315	-300.6520080566407	508.0923461914064	-788.7905273437502	-250.6621093750001	494.5313720703126	-893.6853637695315	-273.6532897949219	368.1752014160157	-793.2310791015627	-359.9865417480469	303.2442626953126	-777.5472412109377	-314.3586730957032	291.9232788085938	-781.2925415039065	-305.3521423339844	242.8443145751954	-811.9282226562502	-392.7423400878907	120.912094116211	-785.0601196289065	-362.1950073242188	127.6476516723633	-865.455993652344	-449.8773803710939	108.7990036010742	-829.0018310546877	-253.4949645996094	52.36843490600587	-840.4522094726565	-249.3263549804688	54.46811676025392	-794.6895751953127	-281.5122985839844	41.99314117431641	-742.3230590820314	
579	2.89	-212.7235412597657	1636.539428710938	-962.451599121094	-339.8686218261719	1561.368530273438	-1071.609741210938	-344.1723327636719	1572.26708984375	-920.8496093750002	-395.2200927734376	1448.371948242188	-982.6303710937502	-422.9922180175782	1126.790283203125	-983.2551269531252	-263.9295959472657	1366.850830078125	-988.682067871094	-347.5544738769532	1397.545166015625	-1155.543090820313	-371.7621765136719	1250.073852539063	-1287.027465820313	-353.0700683593751	1205.370483398438	-1273.088012695313	-382.1449890136719	1193.25341796875	-1325.680297851563	-396.058807373047	1143.926513671875	-1352.983642578125	-472.8747558593751	1129.893432617188	-1309.805053710938	-363.7402343750001	995.4693603515627	-1166.093994140625	-322.7630920410157	960.8629150390627	-1203.019897460938	-314.3085937500001	1018.353149414063	-1152.656005859375	-332.6551208496094	1392.155517578125	-821.4756469726565	-382.7157287597657	1262.283081054688	-681.4847412109376	-349.1073608398438	1225.114501953125	-677.8400268554689	-391.1313476562501	1205.976806640625	-638.5589599609376	-382.1505737304688	1137.059692382813	-613.3316040039064	-453.2617797851564	1116.873168945313	-666.2197875976564	-338.3957519531251	997.1773681640627	-804.2294921875002	-288.3937988281251	1023.470153808594	-815.569030761719	-290.3572692871094	969.4924926757815	-766.7059326171876	-260.4836425781251	947.9819946289065	-1096.243896484375	-250.7138671875001	940.1956176757815	-883.1083984375002	-423.7981567382814	1019.519958496094	-979.1480712890627	-432.2439575195314	990.7452392578127	-1007.284118652344	-427.4187011718751	988.8774414062502	-950.8726196289065	-346.5492553710938	792.943542480469	-1152.447998046875	-325.4416503906251	712.6895751953126	-1142.373779296875	-276.2706604003907	712.6516113281251	-1133.202514648438	-359.5307617187501	663.9602050781251	-1126.827392578125	-371.3597412109376	503.8742980957032	-1092.52392578125	-335.1738586425782	503.051239013672	-978.5347900390627	-333.3435668945313	364.3915405273438	-1018.448669433594	-356.0093078613282	308.3498229980469	-1082.062622070313	-326.3330993652344	313.5511169433594	-1046.109985351563	-335.1453552246094	237.2850494384766	-1010.822448730469	-386.969940185547	107.7420272827149	-1054.74560546875	-357.4468688964844	123.2432022094727	-977.3736572265627	-443.4700927734376	97.20657348632815	-1007.16259765625	-241.3888397216797	53.63781738281251	-993.4571533203127	-236.2636108398438	50.21069335937501	-1032.363403320313	-259.9817810058594	43.61637496948243	-1082.089477539063	-335.9360046386719	696.5119018554689	-794.811706542969	-293.2772827148438	646.7020874023439	-778.0086669921877	-258.9970092773438	652.4725952148439	-779.594909667969	-306.9427795410157	565.4876708984376	-790.926452636719	-300.7042846679688	508.1087646484376	-788.7850341796877	-250.5393218994141	494.6227111816407	-893.690856933594	-273.7154541015626	368.1732177734376	-793.1868896484377	-359.9763793945313	303.3222351074219	-777.534606933594	-314.3758850097657	291.9589233398438	-781.2775878906252	-305.3680725097657	242.8532409667969	-811.8833007812502	-392.7330932617189	120.9482421875	-785.076599121094	-362.2719726562501	127.6666336059571	-865.472595214844	-449.8865051269532	108.7941818237305	-829.0067138671877	-253.4693298339844	52.3386573791504	-840.4544067382815	-249.3460388183594	54.40932083129884	-794.6431884765627	-281.4643554687501	42.01397705078126	-742.3165283203126	
580	2.895	-212.9593048095704	1636.598510742188	-962.045837402344	-339.5975646972657	1561.395141601563	-1071.769165039063	-344.4640197753907	1572.238525390625	-920.938171386719	-395.1775512695314	1448.38232421875	-982.6939086914065	-422.9187316894532	1126.821411132813	-983.3704223632815	-263.8669738769532	1366.830078125	-988.6116333007815	-347.2522888183594	1397.581665039063	-1155.573608398438	-371.3444824218751	1250.136596679688	-1287.057983398438	-352.5519409179688	1205.411254882813	-1273.14599609375	-381.7476806640626	1193.331176757813	-1325.752807617188	-396.1665039062501	1144.151611328125	-1353.39990234375	-472.3958129882814	1129.980102539063	-1309.858520507813	-363.3669128417969	995.434509277344	-1166.140869140625	-322.4721679687501	960.778991699219	-1203.012084960938	-314.2372741699219	1018.409912109375	-1152.655151367188	-332.7824401855469	1392.175537109375	-821.4589843750002	-383.0111083984376	1262.231323242188	-681.5540161132814	-349.3749084472657	1225.071899414063	-677.8901367187501	-391.5180969238282	1206.021850585938	-638.6585693359376	-382.4600830078126	1137.078125	-613.4058837890626	-453.423309326172	1116.898559570313	-666.3795166015626	-338.6238708496094	997.1560668945315	-804.2698364257815	-288.5525817871094	1023.392639160156	-815.5418090820315	-290.5892944335938	969.4587402343752	-766.6566772460939	-260.2923278808594	947.9470214843752	-1096.167724609375	-250.7160034179688	940.1689453125002	-883.038513183594	-423.7131347656251	1019.498718261719	-979.2703247070315	-432.1406860351564	990.757751464844	-1007.386596679688	-427.2993774414064	988.844665527344	-951.037536621094	-346.3575744628907	792.9598388671877	-1152.52197265625	-325.2854919433594	712.6959228515626	-1142.3525390625	-276.0253601074219	712.6257934570314	-1133.17431640625	-358.1197204589844	663.6306152343751	-1126.634765625	-371.1979064941407	503.8960876464845	-1092.565673828125	-335.1968688964844	503.0487670898439	-978.599304199219	-333.1535949707032	364.3279418945313	-1018.31494140625	-355.8941040039063	308.3206481933594	-1082.041259765625	-326.3261718750001	313.5209960937501	-1046.121459960938	-335.1401672363282	237.3262481689454	-1010.798217773438	-387.0414123535157	107.7656021118164	-1054.75439453125	-357.4076538085938	123.2983474731446	-977.3748168945315	-443.5010070800782	97.21665954589847	-1007.192138671875	-241.3733978271485	53.61052703857423	-993.4813232421877	-236.2558593750001	50.22189331054689	-1032.351806640625	-260.7834167480469	44.0246696472168	-1082.37353515625	-335.9789733886719	696.4994506835939	-794.830261230469	-293.2871093750001	646.7304687500001	-777.9344482421877	-259.0575561523438	652.4876098632814	-779.5086059570315	-307.0054016113282	565.4803466796876	-790.880554199219	-300.7492065429688	508.1262512207032	-788.738464355469	-250.5801849365235	494.6013793945314	-893.622253417969	-273.6788940429688	368.1767578125001	-793.1459960937502	-360.0214233398438	303.2566223144532	-777.5611572265627	-314.4053955078126	291.9494628906251	-781.2224731445315	-305.4117431640626	242.8896484375001	-811.8695068359377	-392.7439880371095	120.9570236206055	-785.0654296875002	-362.1888732910157	127.6179656982422	-865.488464355469	-449.9276733398439	108.7900848388672	-829.0189208984377	-253.4910278320313	52.37522506713869	-840.451110839844	-249.2702941894532	54.42982864379884	-794.6397705078127	-281.4459228515626	41.98999023437501	-742.3101196289064	
581	2.9	-213.1105346679688	1636.68505859375	-961.6524658203127	-339.2978515625001	1561.388305664063	-1071.69775390625	-344.7054443359376	1572.14990234375	-920.9216308593752	-395.1103820800782	1448.375122070313	-982.7510986328127	-422.8455505371095	1126.81396484375	-983.5081787109377	-263.8276062011719	1366.855590820313	-988.5722656250002	-346.9600830078126	1397.571655273438	-1155.570434570313	-370.8910827636719	1250.109985351563	-1287.093383789063	-352.1415405273438	1205.374145507813	-1273.187255859375	-381.1321105957032	1193.317260742188	-1325.797119140625	-395.6997375488282	1144.138793945313	-1353.460083007813	-471.9747314453126	1129.935180664063	-1309.987182617188	-362.9879150390626	995.4971313476565	-1166.19140625	-322.2173767089844	960.7540283203127	-1203.024047851563	-314.0572204589844	1018.429870605469	-1152.619384765625	-332.9413757324219	1392.151000976563	-821.447204589844	-383.2683410644532	1262.165405273438	-681.6027221679689	-349.6068420410157	1225.008178710938	-677.8846435546876	-391.821746826172	1205.9931640625	-638.7295532226564	-382.7862243652344	1137.010375976563	-613.4323120117189	-453.6085510253907	1116.908203125	-666.4328613281251	-338.7193298339844	997.138854980469	-804.2940673828127	-288.6583251953126	1023.403137207031	-815.487243652344	-290.7427978515626	969.436950683594	-766.6282958984376	-260.1944580078126	947.905944824219	-1096.148559570313	-250.6849975585938	940.1373291015627	-882.9365844726565	-423.6640014648439	1019.484130859375	-979.4046020507815	-432.0419006347657	990.7524414062502	-1007.477355957031	-427.2625427246095	988.8247680664065	-951.1572875976565	-346.1574707031251	793.0087890625002	-1152.50146484375	-325.1950683593751	712.5745849609376	-1142.368774414063	-275.9822082519532	712.5578613281251	-1133.096801757813	-358.5569152832032	663.8399047851564	-1126.843994140625	-371.2342834472657	503.914031982422	-1092.550048828125	-335.1603393554688	503.0577697753907	-978.5733032226565	-333.3079528808594	364.3782653808594	-1018.410339355469	-355.8858032226563	308.3709106445313	-1082.0537109375	-326.3056335449219	313.4295349121094	-1046.3046875	-335.1298522949219	237.3161163330079	-1010.788879394531	-386.9721679687501	107.7317810058594	-1054.82861328125	-357.4533691406251	123.2414016723633	-977.391296386719	-443.5017395019532	97.207389831543	-1007.182678222656	-241.3661651611329	53.65052413940431	-993.4705200195315	-236.213363647461	50.22159576416017	-1032.328857421875	-260.7915649414063	44.02886199951173	-1082.377075195313	-336.0623474121094	696.4813232421876	-794.8635253906252	-293.3531188964844	646.6838989257814	-777.964782714844	-259.0767822265626	652.4635620117189	-779.4874267578127	-307.0378723144532	565.4541625976564	-790.873229980469	-300.7713623046876	508.1319580078126	-788.7426757812502	-250.5658569335938	494.6117248535157	-893.5679931640627	-273.7135009765626	368.1940002441407	-793.1155395507815	-360.1548767089844	303.4441833496094	-777.679138183594	-314.3893737792969	291.9738159179688	-781.1995849609377	-305.3910827636719	242.8684692382813	-811.8187255859377	-392.7330017089845	120.9733657836914	-785.0784301757815	-362.1047363281251	127.6521224975586	-865.4280395507815	-449.8602294921876	108.825180053711	-829.0317993164065	-253.5019226074219	52.34164428710939	-840.4583740234377	-249.3768157958985	54.38076400756837	-794.6519165039065	-281.4879455566407	42.02914428710938	-742.3278808593751	
